<svg xmlns="http://www.w3.org/2000/svg" xmlns:xlink="http://www.w3.org/1999/xlink" width="34" height="25.97" viewBox="0 0 34 25.97">
  <defs>
    <style>
      .cls-1 {
        fill-rule: evenodd;
        filter: url(#filter);
      }
    </style>
    <filter id="filter" x="923" y="6527" width="34" height="25.97" filterUnits="userSpaceOnUse">
      <feFlood result="flood" flood-color="#fff"/>
      <feComposite result="composite" operator="in" in2="SourceGraphic"/>
      <feBlend result="blend" in2="SourceGraphic"/>
    </filter>
  </defs>
  <path id="JCB.svg" class="cls-1" d="M945.192,6527.02h-6.381a0.064,0.064,0,0,0-.041.01h-0.123l-0.041.01h-0.082l-0.041.01h-0.041c-0.014,0-.027.01-0.041,0.01H938.36a0.063,0.063,0,0,1-.041.01l-0.041.01-0.041.01H938.2a0.061,0.061,0,0,1-.041.01c-0.013,0-.027.01-0.04,0.01l-0.041.01c-0.014,0-.027.01-0.041,0.01s-0.027.01-.041,0.01-0.027.01-.041,0.01-0.027.01-.041,0.01l-0.041.01a0.063,0.063,0,0,1-.041.01c-0.014.01-.027,0.01-0.041,0.02a0.063,0.063,0,0,0-.041.01c-0.013,0-.027.01-0.041,0.01l-0.042.02a0.059,0.059,0,0,0-.04.01c-0.014,0-.027.01-0.042,0.01s-0.027.01-.041,0.02a0.078,0.078,0,0,0-.041.02c-0.013,0-.028.01-0.041,0.01s-0.028.01-.042,0.02l-0.041.01a0.078,0.078,0,0,1-.041.02c-0.013.01-.027,0.01-0.041,0.02s-0.027.01-.041,0.02a0.078,0.078,0,0,0-.041.02,0.081,0.081,0,0,0-.042.02,0.078,0.078,0,0,0-.041.02l-0.04.02-0.041.02c-0.014.01-.028,0.01-0.041,0.02s-0.027.01-.042,0.02l-0.041.03a0.078,0.078,0,0,0-.041.02,0.082,0.082,0,0,0-.041.02l-0.042.03c-0.014.01-.027,0.01-0.041,0.02l-0.041.03-0.041.03a0.075,0.075,0,0,0-.041.02l-0.04.03-0.042.03-0.041.03-0.041.03-0.041.03-0.041.03a0.142,0.142,0,0,0-.042.04l-0.041.03a0.153,0.153,0,0,0-.041.04l-0.041.03a0.153,0.153,0,0,0-.041.04,0.14,0.14,0,0,0-.041.04l-0.042.03a0.138,0.138,0,0,1-.04.04,0.153,0.153,0,0,1-.041.04c-0.014.02-.027,0.03-0.041,0.05a0.153,0.153,0,0,0-.041.04c-0.014.01-.027,0.03-0.041,0.04s-0.028.03-.041,0.05-0.027.03-.041,0.04-0.027.03-.041,0.05-0.027.03-.042,0.05-0.027.03-.041,0.05-0.028.03-.042,0.05l-0.041.06c-0.014.02-.027,0.03-0.041,0.05l-0.04.06-0.041.06-0.041.06c-0.014.02-.027,0.05-0.041,0.07l-0.041.06a0.432,0.432,0,0,1-.041.07c-0.014.03-.027,0.05-0.041,0.08s-0.027.05-.041,0.07a0.583,0.583,0,0,1-.042.08l-0.041.09-0.042.09-0.041.09c-0.013.04-.027,0.07-0.04,0.11a1.034,1.034,0,0,0-.041.11c-0.015.04-.028,0.08-0.041,0.12s-0.028.09-.041,0.13-0.028.1-.041,0.16-0.029.12-.041,0.18a4.377,4.377,0,0,0-.088.88v5.66c0.029-.02.058-0.05,0.088-0.07,0.013-.01.027-0.03,0.041-0.04l0.041-.03,0.041-.03,0.041-.03,0.041-.03,0.04-.03,0.041-.03,0.042-.03,0.041-.02,0.042-.03,0.041-.03c0.014-.01.027-0.01,0.041-0.02l0.041-.03a0.078,0.078,0,0,0,.041-0.02,0.078,0.078,0,0,1,.041-0.02l0.041-.03,0.041-.02c0.014-.01.027-0.01,0.04-0.02a0.078,0.078,0,0,1,.041-0.02l0.041-.02,0.042-.03,0.041-.02a0.085,0.085,0,0,0,.042-0.02l0.041-.02,0.041-.02,0.041-.01,0.041-.02,0.041-.02,0.041-.02,0.041-.01,0.04-.02,0.042-.02c0.013,0,.027-0.01.041-0.01l0.041-.02c0.013,0,.027-0.01.041-0.01s0.027-.01.041-0.02l0.041-.01,0.042-.02c0.013,0,.027-0.01.041-0.01l0.041-.02c0.013,0,.027-0.01.041-0.01l0.041-.01,0.042-.02,0.04-.01,0.041-.01,0.041-.01,0.041-.02,0.041-.01,0.042-.01,0.041-.01,0.05-.01,0.041-.01,0.042-.01,0.041-.01,0.041-.01,0.04-.01,0.041-.01,0.042-.01,0.041-.01,0.041-.01,0.041-.01,0.041-.01h0.041l0.042-.01,0.041-.01,0.041-.01,0.041-.01h0.041l0.041-.01,0.042-.01h0.041l0.041-.01,0.041-.01h0.041l0.041-.01,0.041-.01H938l0.041-.01h0.041l0.041-.01h0.04l0.041-.01h0.042l0.041-.01h0.041l0.041-.01h0.082l0.041-.01h0.041l0.041-.01h0.083l0.04-.01h0.123l0.042-.01h0.164l0.041-.01h0.205l0.041-.01h1.151l0.041,0.01h0.245l0.043,0.01h0.164l0.041,0.01h0.123l0.041,0.01h0.081l0.041,0.01h0.041l0.041,0.01h0.083l0.042,0.01h0.041l0.041,0.01h0.083l0.041,0.01h0.041l0.04,0.01h0.041l0.041,0.01H941.9l0.041,0.01h0.041l0.041,0.01,0.041,0.01h0.043l0.041,0.01h0.041l0.041,0.01,0.04,0.01h0.041l0.041,0.01H942.4l0.041,0.01,0.041,0.01h0.043l0.041,0.01,0.04,0.01h0.041l0.04,0.01,0.043,0.01h0.041l0.04,0.01,0.041,0.01,0.041,0.01h0.041l0.041,0.01,0.041,0.01,0.041,0.01h0.041l0.041,0.01,0.041,0.01,0.041,0.01,0.04,0.01,0.041,0.01h0.043l0.041,0.01,0.041,0.01,0.041,0.01L943.5,6536l0.041,0.01h0.043l0.041,0.01,0.041,0.01,0.041,0.01,0.041,0.01,0.041,0.01,0.04,0.01,0.041,0.01,0.041,0.01,0.043,0.01,0.041,0.01,0.041,0.01,0.041,0.01v1.83l-0.041-.02-0.041-.02-0.041-.02-0.043-.02-0.041-.02-0.041-.03-0.04-.01-0.041-.02-0.041-.02-0.041-.02-0.041-.02-0.041-.02-0.043-.02-0.041-.02-0.041-.02-0.041-.02-0.041-.01-0.041-.02-0.043-.02-0.041-.02-0.04-.01-0.041-.02-0.041-.02-0.041-.01-0.041-.02-0.041-.01-0.041-.02-0.041-.01-0.041-.02-0.041-.01-0.041-.02-0.04-.01-0.041-.02-0.043-.01-0.04-.01-0.041-.02-0.04-.01-0.041-.01-0.043-.01-0.041-.02-0.041-.01-0.041-.01-0.041-.01-0.041-.01-0.04-.01-0.041-.01-0.041-.01-0.041-.02-0.043-.01-0.041-.01h-0.041l-0.041-.01-0.041-.01-0.042-.01-0.041-.01-0.041-.01-0.04-.01H941.7l-0.041-.01-0.042-.01h-0.041l-0.041-.01-0.041-.01-0.042-.01h-0.041l-0.042-.01h-0.041l-0.041-.01h-0.041l-0.04-.01h-0.041l-0.041-.01H941.08l-0.061.01-0.041-.01H940.9l-0.041-.01h-0.124l-0.04-.01h-0.658l-0.041.01h-0.082c-0.014,0-.027.01-0.041,0.01h-0.041l-0.041.01h-0.041l-0.041.01h-0.04l-0.041.01a0.067,0.067,0,0,0-.042.01h-0.041a0.063,0.063,0,0,1-.041.01,0.064,0.064,0,0,1-.041.01c-0.015,0-.027.01-0.042,0.01a2079019547.864,2079019547.864,0,0,1-.082.02l-0.041.01a0.063,0.063,0,0,0-.041.01,0.061,0.061,0,0,0-.041.01c-0.014,0-.026.01-0.041,0.01l-0.041.01c-0.013,0-.027.01-0.041,0.01s-0.027.01-.041,0.02-0.027.01-.041,0.01-0.027.01-.041,0.01-0.027.01-.041,0.02a0.078,0.078,0,0,0-.041.02c-0.014,0-.027.01-0.041,0.01s-0.027.01-.042,0.02a0.078,0.078,0,0,0-.041.02c-0.014,0-.027.01-0.041,0.01a4.607,4.607,0,0,0-.081.04,0.081,0.081,0,0,1-.042.02l-0.041.03a2718170667.793,2718170667.793,0,0,1-.082.04,0.078,0.078,0,0,1-.041.02l-0.041.03-0.041.03c-0.014.01-.028,0.01-0.041,0.02l-0.041.03-0.041.03-0.042.03-0.041.03a0.167,0.167,0,0,1-.04.04l-0.041.03c-0.014.01-.027,0.03-0.041,0.04a43049482517.31,43049482517.31,0,0,0-.082.08,0.14,0.14,0,0,0-.041.04c-0.014.01-.027,0.03-0.041,0.04s-0.027.03-.041,0.05a59449755295.948,59449755295.948,0,0,1-.082.1c-0.014.02-.027,0.03-0.041,0.05l-0.042.06-0.041.06-0.041.06a0.432,0.432,0,0,1-.041.07c-0.014.03-.028,0.05-0.041,0.08s-0.028.05-.041,0.08-0.028.06-.042,0.09-0.028.07-.041,0.1-0.028.07-.041,0.11-0.028.09-.041,0.13-0.029.1-.041,0.15c-0.016.07-.029,0.13-0.041,0.2-0.018.1-.032,0.2-0.042,0.31s-0.017.24-.017,0.37,0.006,0.25.017,0.37,0.023,0.21.042,0.31c0.012,0.07.025,0.13,0.041,0.2,0.012,0.05.026,0.1,0.041,0.15s0.027,0.08.041,0.13c0.013,0.03.026,0.07,0.041,0.11s0.027,0.06.041,0.1c0.013,0.02.027,0.06,0.042,0.09s0.026,0.05.041,0.08,0.027,0.05.041,0.07,0.027,0.05.041,0.07,0.027,0.05.041,0.07a0.272,0.272,0,0,1,.041.06,0.362,0.362,0,0,1,.042.06,0.249,0.249,0,0,1,.041.05c0.014,0.02.027,0.03,0.041,0.05s0.027,0.03.041,0.05a0.153,0.153,0,0,0,.041.04c0.014,0.02.027,0.03,0.041,0.05s0.027,0.03.041,0.04a0.153,0.153,0,0,0,.041.04c0.014,0.01.027,0.03,0.041,0.04a0.153,0.153,0,0,1,.041.04l0.041,0.03,0.04,0.03,0.041,0.03a0.1,0.1,0,0,0,.042.03,0.053,0.053,0,0,0,.041.03l0.041,0.03,0.041,0.03a0.078,0.078,0,0,1,.041.02l0.041,0.03a0.078,0.078,0,0,1,.041.02c0.013,0.01.027,0.01,0.041,0.02a0.075,0.075,0,0,0,.041.02,4.888,4.888,0,0,0,.083.04,4.607,4.607,0,0,0,.081.04,2718170667.8,2718170667.8,0,0,1,.082.04c0.014,0.01.027,0.01,0.042,0.02a0.082,0.082,0,0,1,.041.02c0.014,0,.027.01,0.041,0.01s0.027,0.01.041,0.02a0.078,0.078,0,0,1,.041.02,0.063,0.063,0,0,1,.041.01c0.014,0,.027.01,0.041,0.01s0.027,0.01.041,0.02a0.063,0.063,0,0,1,.041.01c0.013,0,.026.01,0.041,0.01s0.027,0.01.041,0.01,0.027,0.01.041,0.01l0.041,0.01a2086894606.881,2086894606.881,0,0,1,.082.02c0.014,0,.027.01,0.042,0.01s0.027,0.01.041,0.01a0.063,0.063,0,0,1,.041.01h0.041a0.064,0.064,0,0,0,.042.01,0.064,0.064,0,0,1,.041.01h0.04l0.041,0.01h0.041l0.041,0.01h0.041a0.063,0.063,0,0,0,.041.01h0.082l0.041,0.01H940.2l0.042,0.01h0.248l0.041-.01h0.2l0.042-.01H940.9l0.04-.01h0.041l0.041-.01h0.041l0.041-.01h0.041l0.041-.01h0.04l0.041-.01h0.041l0.041-.01,0.043-.01,0.041-.01h0.041l0.041-.01,0.041-.01h0.041l0.043-.01,0.041-.01,0.041-.01h0.04l0.041-.02h0.041l0.041-.01,0.041-.01,0.041-.01,0.041-.01,0.041-.01,0.043-.01,0.041-.01,0.041-.01,0.041-.02,0.041-.01,0.04-.01,0.041-.01,0.041-.01,0.041-.02,0.041-.01,0.043-.01,0.041-.01,0.041-.02,0.041-.01,0.041-.02,0.041-.01,0.041-.02,0.04-.01,0.041-.01,0.041-.02,0.041-.01,0.041-.02,0.041-.02,0.041-.01,0.041-.02,0.041-.02,0.041-.01,0.041-.02,0.041-.02,0.041-.01,0.042-.02,0.041-.02,0.041-.02,0.041-.02,0.041-.02,0.041-.02,0.043-.02,0.041-.02,0.041-.02,0.041-.02,0.041-.02,0.041-.02,0.04-.02,0.041-.02,0.041-.02,0.043-.02,0.041-.02,0.041-.02,0.041-.02v1.83l-0.041.01-0.041.01-0.041.01-0.043.01-0.041.01-0.041.01-0.04.01-0.041.01-0.041.01-0.041.01-0.055.03-0.041.01-0.041.01-0.041.01-0.041.01-0.041.01h-0.043l-0.04.01-0.041.01-0.041.01-0.041.01-0.041.01H943.1l-0.041.01-0.041.01-0.041.01-0.041.01H942.9l-0.041.01-0.041.01-0.041.01h-0.04l-0.041.01-0.043.01-0.041.01h-0.041l-0.041.01h-0.041l-0.041.01-0.041.01h-0.041l-0.041.01-0.041.01-0.042.01H942.2l-0.041.01-0.041.02h-0.041l-0.041.01h-0.041l-0.042.01H941.91l-0.041.01-0.042.01h-0.041l-0.04.01h-0.041l-0.041.01h-0.041l-0.042.01H941.5l-0.041.01h-0.043l-0.041.01h-0.041l-0.041.01h-0.121l-0.041.01h-0.123l-0.041.01h-0.123l-0.043.01h-0.245l-0.041.01h-0.249l-0.041.01h-0.76l-0.042-.01h-0.205l-0.042-.01h-0.324l-0.042-.01h-0.123l-0.041-.01h-0.082l-0.041-.01h-0.082l-0.041-.01h-0.041l-0.041-.01h-0.041l-0.041-.01h-0.042l-0.041-.01h-0.04l-0.041-.01-0.041-.01H937.99l-0.041-.01h-0.041l-0.041-.01h-0.041l-0.041-.01-0.041-.01H937.7l-0.042-.01-0.04-.01-0.042-.01h-0.041l-0.041-.01-0.041-.01-0.042-.01-0.041-.01h-0.041l-0.041-.01-0.041-.01-0.041-.01-0.042-.01-0.041-.01-0.041-.01-0.04-.01-0.041-.01-0.042-.01-0.041-.01-0.041-.01-0.041-.01-0.042-.01-0.041-.02-0.041-.01-0.041-.01-0.041-.01-0.041-.02-0.041-.01-0.041-.01a0.061,0.061,0,0,0-.041-0.01c-0.014-.01-0.027-0.01-0.041-0.02l-0.029-.02-0.042-.01c-0.014-.01-0.027-0.01-0.041-0.02a0.078,0.078,0,0,1-.041-0.02l-0.041-.01c-0.014-.01-0.027-0.01-0.041-0.02l-0.041-.02-0.042-.01-0.041-.02-0.04-.02-0.041-.02-0.041-.02-0.041-.02-0.041-.02-0.041-.02-0.041-.02a0.085,0.085,0,0,1-.042-0.02l-0.041-.02-0.042-.02-0.041-.02a0.078,0.078,0,0,0-.041-0.02,0.073,0.073,0,0,0-.04-0.02l-0.041-.02-0.041-.03-0.041-.01-0.041-.03a0.078,0.078,0,0,0-.041-0.02l-0.041-.02-0.041-.03a0.081,0.081,0,0,0-.042-0.02l-0.041-.03-0.042-.03-0.041-.03a0.075,0.075,0,0,0-.041-0.02,0.054,0.054,0,0,0-.04-0.03l-0.041-.03c-0.014-.01-0.027-0.03-0.041-0.04l-0.041-.03-0.041-.03c-0.03-.02-0.06-0.05-0.088-0.07v9.98h6.536a0.063,0.063,0,0,1,.041-0.01h0.083a0.061,0.061,0,0,1,.041-0.01h0.042a0.063,0.063,0,0,1,.041-0.01h0.041l0.041-.01a0.067,0.067,0,0,0,.042-0.01H941.7c0.015,0,.025-0.01.04-0.01l0.041-.01,0.041-.01a0.06,0.06,0,0,0,.041-0.01,0.067,0.067,0,0,0,.042-0.01l0.041-.01,0.041-.01a66112821616.733,66112821616.733,0,0,0,.082-0.02,0.07,0.07,0,0,0,.043-0.01c0.013,0,.025-0.01.041-0.01l0.041-.01,0.041-.01c0.014-.01.027-0.01,0.04-0.02s0.025-.01.041-0.01,0.027-.01.041-0.02l0.041-.01,0.041-.02c0.014,0,.027-0.01.041-0.01s0.027-.01.043-0.02a0.086,0.086,0,0,0,.041-0.02c0.012,0,.025-0.01.041-0.01l0.041-.02,0.041-.02,0.041-.02c0.014-.01.027-0.01,0.04-0.02s0.027-.01.041-0.02,0.027-.01.041-0.02a2718170667.753,2718170667.753,0,0,0,.082-0.04l0.041-.03,0.041-.02,0.041-.02,0.041-.02a0.086,0.086,0,0,1,.041-0.02c0.016-.01.027-0.02,0.041-0.03a0.394,0.394,0,0,0,.041-0.02,0.086,0.086,0,0,1,.041-0.02c0.016-.01.027-0.02,0.041-0.03s0.027-.02.042-0.03a0.078,0.078,0,0,1,.041-0.02c0.014-.01.025-0.02,0.041-0.03l0.041-.03c0.016-.01.027-0.02,0.041-0.03s0.027-.02.041-0.03,0.027-.02.043-0.03,0.025-.02.041-0.03,0.025-.02.041-0.03,0.025-.03.041-0.04l0.041-.03c0.016-.02.027-0.02,0.041-0.04s0.027-.02.041-0.03a0.167,0.167,0,0,1,.04-0.04c0.016-.01.027-0.03,0.041-0.04a0.157,0.157,0,0,0,.043-0.04,0.189,0.189,0,0,0,.041-0.04c0.014-.01.027-0.03,0.041-0.04a0.153,0.153,0,0,1,.041-0.04c0.016-.02.027-0.03,0.041-0.05s0.027-.03.041-0.04,0.027-.03.041-0.05,0.027-.03.041-0.05,0.027-.03.041-0.05,0.027-.03.041-0.05,0.026-.03.04-0.05,0.027-.04.041-0.06a0.219,0.219,0,0,1,.041-0.05,0.311,0.311,0,0,1,.041-0.06c0.014-.02.027-0.04,0.043-0.06a0.323,0.323,0,0,1,.041-0.07,0.533,0.533,0,0,1,.041-0.06,0.432,0.432,0,0,0,.041-0.07,0.323,0.323,0,0,0,.039-0.07,0.636,0.636,0,0,0,.041-0.07c0.016-.03.029-0.05,0.043-0.08a0.588,0.588,0,0,0,.041-0.08l0.041-.09a0.793,0.793,0,0,0,.04-0.09l0.041-.09c0.016-.04.027-0.07,0.041-0.11s0.027-.07.041-0.11,0.029-.09.041-0.13a1.066,1.066,0,0,0,.041-0.14,1.429,1.429,0,0,0,.041-0.16c0.018-.06.029-0.13,0.043-0.19,0.016-.09.029-0.17,0.041-0.26a4.615,4.615,0,0,0,.035-0.55v-21.63h-0.076Zm-11.723,0h-6.4a0.063,0.063,0,0,0-.041.01H926.9l-0.041.01h-0.082l-0.041.01H926.7a0.063,0.063,0,0,1-.041.01,0.063,0.063,0,0,0-.041.01h-0.041l-0.041.01a0.066,0.066,0,0,0-.042.01,0.063,0.063,0,0,0-.041.01h-0.041a0.066,0.066,0,0,1-.042.01l-0.041.01c-0.014,0-.026.01-0.041,0.01s-0.027.01-.041,0.01-0.027.01-.041,0.01-0.028.01-.041,0.01l-0.042.01a0.063,0.063,0,0,1-.041.01c-0.014.01-.027,0.01-0.041,0.02a0.064,0.064,0,0,0-.041.01c-0.014,0-.027.01-0.041,0.01l-0.041.02-0.042.01c-0.014.01-.027,0.01-0.041,0.02s-0.026.01-.04,0.01-0.027.01-.041,0.02l-0.032.01-0.042.02-0.041.02c-0.014,0-.027.01-0.041,0.01a0.075,0.075,0,0,1-.041.02c-0.014.01-.028,0.01-0.042,0.02s-0.027.01-.041,0.02-0.027.01-.041,0.02-0.027.01-.041,0.02l-0.041.02a0.082,0.082,0,0,1-.041.02l-0.041.03a0.082,0.082,0,0,0-.041.02c-0.014.01-.028,0.01-0.041,0.02a0.078,0.078,0,0,1-.041.02l-0.041.03a0.081,0.081,0,0,1-.042.02l-0.041.03a0.078,0.078,0,0,1-.041.02l-0.041.03-0.041.03-0.041.03a0.118,0.118,0,0,0-.042.03c-0.013.01-.027,0.01-0.041,0.02l-0.04.04-0.041.03-0.042.03-0.041.03a0.153,0.153,0,0,0-.041.04l-0.041.03a0.153,0.153,0,0,0-.041.04l-0.042.03c-0.013.01-.027,0.03-0.041,0.04s-0.027.03-.042,0.04a0.169,0.169,0,0,0-.041.04,0.153,0.153,0,0,0-.041.04,0.151,0.151,0,0,0-.04.04,0.153,0.153,0,0,1-.041.04c-0.014.02-.028,0.03-0.041,0.05s-0.028.03-.042,0.04-0.027.03-.041,0.05a0.25,0.25,0,0,0-.042.05c-0.014.01-.027,0.03-0.041,0.04a0.219,0.219,0,0,1-.041.05l-0.041.06a0.2,0.2,0,0,0-.041.05c-0.014.02-.027,0.04-0.042,0.06s-0.027.03-.041,0.05-0.027.04-.04,0.06-0.028.05-.041,0.07-0.028.04-.042,0.06a11979579725.026,11979579725.026,0,0,1-.082.14,0.37,0.37,0,0,0-.041.07c-0.014.03-.028,0.05-0.041,0.08s-0.028.05-.041,0.07l-0.042.09-0.041.09-0.041.09c-0.014.04-.028,0.07-0.041,0.11a1.034,1.034,0,0,0-.041.11c-0.014.04-.028,0.08-0.041,0.12s-0.027.09-.041,0.13c-0.014.06-.029,0.11-0.041,0.16s-0.029.12-.041,0.18a4.377,4.377,0,0,0-.088.88v10.68c0.03,0.02.059,0.03,0.088,0.05l0.041,0.02,0.041,0.02,0.041,0.02,0.041,0.02,0.041,0.02,0.041,0.02,0.041,0.02,0.041,0.02,0.042,0.01,0.041,0.03,0.041,0.01,0.041,0.02,0.041,0.02,0.041,0.02,0.042,0.02,0.041,0.02,0.04,0.01,0.041,0.02,0.042,0.02,0.041,0.02,0.041,0.01,0.041,0.02,0.041,0.01,0.042,0.02,0.041,0.02,0.042,0.01,0.041,0.02,0.041,0.01,0.04,0.02,0.041,0.01,0.041,0.02,0.042,0.01,0.041,0.02,0.042,0.01,0.041,0.02,0.041,0.01,0.041,0.01,0.041,0.01,0.042,0.02,0.041,0.01,0.04,0.01,0.041,0.01,0.042,0.01,0.041,0.01,0.041,0.02,0.041,0.01,0.041,0.01,0.041,0.01,0.042,0.01,0.041,0.01,0.041,0.01,0.041,0.01,0.041,0.01,0.041,0.01h0.041l0.041,0.01,0.041,0.01,0.041,0.01,0.041,0.01,0.042,0.01H925.6l0.041,0.01,0.041,0.01,0.042,0.01h0.041l0.04,0.01h0.041l0.041,0.01h0.042l0.041,0.01h0.041l0.041,0.01h0.041l0.041,0.01h0.124l0.04,0.01h0.125l0.041,0.01h0.411a0.063,0.063,0,0,1,.041-0.01h0.083a0.063,0.063,0,0,1,.041-0.01h0.041c0.014,0,.027-0.01.041-0.01h0.041l0.041-.01a66112821616.814,66112821616.814,0,0,0,.082-0.02h0.042a0.06,0.06,0,0,1,.04-0.01,0.063,0.063,0,0,1,.041-0.01,0.061,0.061,0,0,1,.041-0.01,0.063,0.063,0,0,1,.041-0.01c0.014-.01.028-0.01,0.041-0.02s0.027-.01.042-0.01,0.027-.01.041-0.02,0.027-.01.041-0.01,0.027-.01.041-0.02,0.027-.01.041-0.01,0.028-.01.042-0.02,0.027-.01.041-0.02,0.027-.01.041-0.02,0.026-.01.04-0.02a0.082,0.082,0,0,1,.041-0.02l0.041-.03a0.085,0.085,0,0,0,.042-0.02c0.013-.01.027-0.01,0.041-0.02l0.041-.03a0.078,0.078,0,0,1,.041-0.02l0.041-.03,0.041-.03a0.153,0.153,0,0,1,.041-0.04l0.041-.03c0.015-.01.028-0.03,0.042-0.04a0.167,0.167,0,0,0,.04-0.04,0.153,0.153,0,0,0,.041-0.04,0.155,0.155,0,0,1,.042-0.04,0.219,0.219,0,0,1,.041-0.05l0.042-.06c0.014-.02.027-0.03,0.041-0.05l0.041-.06a0.52,0.52,0,0,1,.041-0.07c0.014-.02.028-0.05,0.041-0.07a0.73,0.73,0,0,1,.041-0.08c0.014-.03.028-0.06,0.041-0.09,0.015-.06.028-0.09,0.041-0.13a1.258,1.258,0,0,0,.041-0.13,1.437,1.437,0,0,0,.04-0.16,2.7,2.7,0,0,0,.042-0.28q0.009-.12.009-0.24v-5.02h3.652v5.02c0,0.15-.006.29-0.02,0.44-0.01.1-.024,0.2-0.041,0.29-0.012.07-.025,0.14-0.041,0.2s-0.025.1-.04,0.15-0.026.09-.041,0.13a0.854,0.854,0,0,1-.041.11,0.685,0.685,0,0,1-.042.1c-0.013.03-.027,0.07-0.041,0.1s-0.027.05-.042,0.08-0.027.05-.041,0.07a59897898823.062,59897898823.062,0,0,1-.082.14l-0.041.06c-0.014.02-.027,0.05-0.041,0.07s-0.027.03-.041,0.05l-0.04.06c-0.014.01-.028,0.03-0.041,0.04a8492822236.92,8492822236.92,0,0,1-.082.1,0.142,0.142,0,0,1-.042.04c-0.013.02-.027,0.03-0.041,0.05a0.189,0.189,0,0,0-.041.04,0.169,0.169,0,0,0-.041.04,0.153,0.153,0,0,0-.041.04l-0.041.03-0.042.03a0.129,0.129,0,0,1-.041.04l-0.041.03-0.04.03-0.041.03-0.042.03a0.075,0.075,0,0,1-.041.02l-0.041.03-0.041.03a0.078,0.078,0,0,0-.041.02,0.078,0.078,0,0,1-.041.02l-0.042.03c-0.013.01-.027,0.01-0.041,0.02a0.075,0.075,0,0,1-.041.02,4.888,4.888,0,0,1-.083.04l-0.04.03c-0.013,0-.027.01-0.041,0.01l-0.041.03-0.041.02-0.042.02a0.082,0.082,0,0,0-.041.02,0.081,0.081,0,0,0-.042.02l-0.042.01-0.041.02c-0.014.01-.027,0.01-0.041,0.02s-0.027.01-.041,0.02-0.028.01-.041,0.01l-0.042.02c-0.014,0-.026.01-0.04,0.01a0.078,0.078,0,0,1-.042.02l-0.041.01-0.041.02c-0.014,0-.028.01-0.041,0.01l-0.041.01-0.042.01c-0.013.01-.027,0.01-0.041,0.02l-0.041.01a0.061,0.061,0,0,1-.041.01c-0.014.01-.028,0.01-0.042,0.02l-0.041.01c-0.014,0-.026.01-0.04,0.01s-0.027.01-.041,0.01l-0.041.01c-0.014,0-.027.01-0.041,0.01s-0.027.01-.042,0.01l-0.041.01c-0.014,0-.027.01-0.041,0.01l-0.041.01-0.041.01a0.063,0.063,0,0,0-.041.01h-0.041l-0.041.01-0.041.01a0.06,0.06,0,0,0-.04.01,0.066,0.066,0,0,0-.042.01h-0.041a0.061,0.061,0,0,1-.041.01l-0.041.01h-0.041l-0.042-.02c-0.013,0-.026.01-0.041,0.01l-0.041.01h-0.082l-0.042.01h-0.04l-0.041.01h-0.041l-0.041.01H928.7l-0.041.01H928.62l-0.041.01H928.5l-0.041.01h-0.123l-0.042.01h-0.077l-0.041.01h-0.206l-0.041.01h-1.27l-0.041-.01H926.49l-0.036-.01H926.33l-0.041-.01h-0.123l-0.042-.01H926l-0.041-.01h-0.083l-0.041-.01h-0.081l-0.036-.01-0.042-.01H925.6l-0.041-.01h-0.042l-0.041-.01H925.43l-0.041-.01h-0.082l-0.041-.01h-0.041l-0.041-.01h-0.041l-0.041-.01H925.06l-0.041-.01h-0.041l-0.041-.01-0.041-.01h-0.041l-0.042-.01h-0.041l-0.04-.01h-0.041l-0.042-.01-0.041-.01h-0.041l-0.041-.01-0.041-.01h-0.042l-0.041-.01-0.042-.01h-0.041l-0.041-.01-0.04-.01H924.2l-0.041-.01-0.042-.01-0.041-.01h-0.042l-0.041-.01-0.041-.01-0.041-.01h-0.041l-0.042-.01-0.041-.01-0.04-.01-0.041-.01-0.042-.01-0.041-.01-0.041-.01h-0.041l-0.041-.01-0.041-.01-0.042-.01-0.041-.01-0.041-.01-0.041-.01-0.041-.01-0.041-.01-0.041-.01-0.041-.01-0.041-.01a0.306,0.306,0,0,0-.088-0.02v9.11h6.525a0.063,0.063,0,0,1,.041-0.01h0.082a0.063,0.063,0,0,1,.041-0.01,0.063,0.063,0,0,0,.041-0.01h0.042a0.063,0.063,0,0,0,.041-0.01h0.041a0.064,0.064,0,0,0,.041-0.01h0.04a0.063,0.063,0,0,1,.041-0.01l0.042-.01c0.013,0,.027-0.01.041-0.01a66112821616.615,66112821616.615,0,0,1,.082-0.02l0.042-.01,0.041-.01a0.063,0.063,0,0,0,.041-0.01,0.064,0.064,0,0,0,.041-0.01c0.014,0,.027-0.01.041-0.01s0.027-.01.042-0.01l0.04-.01,0.042-.02a0.064,0.064,0,0,0,.041-0.01c0.014,0,.027-0.01.041-0.01s0.027-.01.041-0.02l0.041-.01,0.041-.02c0.014,0,.028-0.01.042-0.01a0.078,0.078,0,0,1,.041-0.02c0.014-.01.027-0.01,0.042-0.02s0.027-.01.041-0.01a0.075,0.075,0,0,1,.041-0.02l0.04-.02,0.041-.02c0.014-.01.027-0.01,0.042-0.02s0.027-.01.041-0.02a2718170678.881,2718170678.881,0,0,1,.082-0.04,0.085,0.085,0,0,1,.042-0.02l0.041-.03,0.041-.02c0.013-.01.027-0.01,0.041-0.02a0.078,0.078,0,0,1,.041-0.02,0.082,0.082,0,0,1,.041-0.02l0.042-.03a0.076,0.076,0,0,1,.04-0.02l0.041-.03a0.078,0.078,0,0,1,.041-0.02l0.041-.03,0.042-.03a0.075,0.075,0,0,1,.041-0.02l0.041-.03,0.041-.03,0.041-.03,0.041-.03,0.042-.03c0.013-.01.027-0.03,0.041-0.04l0.041-.03,0.04-.03a0.153,0.153,0,0,1,.041-0.04,0.153,0.153,0,0,0,.041-0.04l0.041-.03a193722670328.691,193722670328.691,0,0,0,.123-0.12c0.014-.02.027-0.03,0.041-0.05a0.155,0.155,0,0,0,.042-0.04c0.014-.01.027-0.03,0.041-0.04s0.027-.03.042-0.05,0.027-.03.041-0.04a5.328,5.328,0,0,1,.081-0.1l0.041-.06a0.219,0.219,0,0,0,.041-0.05c0.014-.02.027-0.03,0.041-0.05l0.041-.06,0.041-.06,0.041-.06,0.041-.06a0.43,0.43,0,0,1,.042-0.07l0.041-.06a0.52,0.52,0,0,1,.041-0.07c0.014-.03.028-0.05,0.041-0.08s0.026-.05.04-0.07,0.028-.06.041-0.09a0.588,0.588,0,0,0,.041-0.08c0.014-.03.028-0.06,0.041-0.09s0.028-.07.041-0.1,0.028-.07.042-0.1l0.041-.12c0.014-.04.028-0.08,0.041-0.12s0.028-.1.041-0.14c0.015-.06.029-0.11,0.041-0.16s0.029-.13.041-0.2,0.03-.17.042-0.26a4.487,4.487,0,0,0,.034-0.55v-21.62h-0.034Zm23.515-.01h-0.072v0.01h-6.435a0.055,0.055,0,0,1-.04.01H950.4l-0.041.01h-0.084l-0.041.01h-0.041c-0.014,0-.026.01-0.041,0.01h-0.041c-0.014,0-.026.01-0.043,0.01l-0.041.01h-0.041a0.057,0.057,0,0,1-.039.01c-0.015,0-.027.01-0.041,0.01l-0.041.01-0.041.01a66112821616.926,66112821616.926,0,0,0-.082.02,0.059,0.059,0,0,0-.041.01l-0.041.01a0.067,0.067,0,0,0-.043.01c-0.015,0-.027.01-0.041,0.01a0.061,0.061,0,0,1-.041.01c-0.015.01-.027,0.01-0.041,0.02a0.061,0.061,0,0,0-.041.01l-0.042.01c-0.013.01-.027,0.01-0.041,0.02s-0.027.01-.041,0.01-0.027.01-.041,0.02-0.026.01-.041,0.01l-0.041.02-0.043.01c-0.013.01-.026,0.01-0.041,0.02s-0.026.01-.041,0.02a0.078,0.078,0,0,0-.041.02c-0.015,0-.026.01-0.041,0.01a0.079,0.079,0,0,1-.04.02,0.078,0.078,0,0,1-.041.02l-0.041.02-0.041.03a0.078,0.078,0,0,0-.041.02,0.092,0.092,0,0,0-.043.02c-0.013.01-.026,0.01-0.041,0.02a0.078,0.078,0,0,1-.041.02l-0.041.03a0.078,0.078,0,0,0-.041.02l-0.041.03a0.078,0.078,0,0,0-.041.02l-0.041.03-0.043.03-0.041.02-0.041.03-0.041.03-0.041.03-0.041.03-0.041.03-0.041.03-0.041.04a0.107,0.107,0,0,0-.041.03l-0.041.03a0.14,0.14,0,0,1-.041.04,0.192,0.192,0,0,0-.043.04c-0.014.01-.025,0.02-0.04,0.03a0.186,0.186,0,0,1-.039.04c-0.016.01-.029,0.03-0.043,0.04s-0.027.03-.041,0.04-0.027.03-.041,0.04a0.189,0.189,0,0,1-.041.04c-0.016.02-.027,0.03-0.041,0.05s-0.027.03-.041,0.04a0.451,0.451,0,0,0-.041.05,0.181,0.181,0,0,0-.043.05,8.005,8.005,0,0,0-.122.15c-0.015.02-.027,0.03-0.041,0.05l-0.041.06-0.041.06a0.165,0.165,0,0,0-.041.06c-0.014.02-.026,0.04-0.041,0.06a0.711,0.711,0,0,0-.041.06c-0.016.02-.028,0.05-0.041,0.07a0.369,0.369,0,0,0-.043.07c-0.014.02-.026,0.05-0.041,0.07s-0.027.05-.042,0.08a0.583,0.583,0,0,0-.042.08c-0.016.03-.026,0.05-0.041,0.08s-0.027.06-.04,0.09a0.823,0.823,0,0,0-.041.1,0.592,0.592,0,0,0-.041.1c-0.016.04-.028,0.07-0.041,0.11s-0.028.08-.041,0.12-0.028.09-.043,0.14-0.026.1-.041,0.15-0.028.12-.041,0.18a4.378,4.378,0,0,0-.088.88v4.49h6.105l0.04,0.01h0.2l0.043,0.01h0.123l0.041,0.01h0.081l0.041,0.01H953.2l0.041,0.01h0.043l0.041,0.01h0.041c0.013,0,.026.01,0.041,0.01l0.041,0.01h0.041a0.063,0.063,0,0,0,.041.01l0.041,0.01c0.014,0,.027.01,0.042,0.01s0.026,0.01.041,0.01l0.041,0.01c0.015,0,.026.01,0.041,0.01a0.063,0.063,0,0,0,.041.01c0.015,0.01.028,0.01,0.041,0.02a0.063,0.063,0,0,1,.041.01c0.015,0,.026.01,0.041,0.01s0.026,0.01.043,0.02,0.026,0.01.041,0.01,0.026,0.01.041,0.02a0.076,0.076,0,0,1,.04.02c0.015,0,.029.01,0.041,0.01s0.026,0.01.043,0.02,0.026,0.01.041,0.02,0.026,0.01.041,0.02,0.026,0.01.041,0.02a0.075,0.075,0,0,0,.041.02l0.041,0.03a0.082,0.082,0,0,1,.041.02l0.041,0.03a0.082,0.082,0,0,1,.041.02l0.041,0.03c0.014,0.01.026,0.02,0.043,0.03a0.485,0.485,0,0,0,.041.03c0.013,0.01.025,0.02,0.04,0.03s0.026,0.03.04,0.04l0.041,0.03a43049482518.649,43049482518.649,0,0,0,.082.08c0.015,0.02.027,0.03,0.041,0.05s0.029,0.03.043,0.04a0.249,0.249,0,0,0,.041.05c0.015,0.02.027,0.04,0.041,0.06a0.711,0.711,0,0,1,.041.06c0.015,0.02.027,0.04,0.041,0.06s0.029,0.05.041,0.07,0.028,0.06.04,0.08a0.842,0.842,0,0,1,.041.1c0.017,0.04.029,0.07,0.043,0.11s0.029,0.1.041,0.15a1.973,1.973,0,0,1,.041.25c0.006,0.07.011,0.14,0.011,0.21s0,0.14-.011.2a1.591,1.591,0,0,1-.041.25c-0.012.05-.024,0.1-0.041,0.15a0.722,0.722,0,0,1-.043.11,0.842,0.842,0,0,1-.041.1c-0.012.03-.025,0.05-0.04,0.08s-0.026.05-.041,0.08-0.026.04-.041,0.06a0.711,0.711,0,0,1-.041.06c-0.014.02-.026,0.04-0.041,0.06s-0.026.03-.041,0.05a0.637,0.637,0,0,1-.043.05,0.522,0.522,0,0,1-.041.04c-0.014.02-.026,0.03-0.041,0.05a43049482405.639,43049482405.639,0,0,1-.082.08l-0.04.03a0.127,0.127,0,0,0-.04.04l-0.041.03c-0.015.01-.027,0.02-0.043,0.03l-0.041.03c-0.015,0-.027.02-0.041,0.02l-0.041.03a0.082,0.082,0,0,1-.041.02l-0.041.03a0.075,0.075,0,0,0-.041.02c-0.015.01-.027,0.01-0.041,0.02s-0.027.01-.041,0.02a0.082,0.082,0,0,1-.041.02c-0.015.01-.026,0.01-0.043,0.02s-0.026.01-.041,0.02a0.079,0.079,0,0,0-.04.02c-0.015,0-.026.01-0.041,0.01s-0.026.01-.041,0.02-0.028.01-.043,0.01-0.026.01-.041,0.02-0.026.01-.041,0.01a0.06,0.06,0,0,1-.041.01c-0.015.01-.026,0.01-0.041,0.02a0.063,0.063,0,0,0-.041.01c-0.015,0-.026.01-0.041,0.01s-0.026.01-.041,0.01l-0.042.01a0.064,0.064,0,0,0-.041.01l-0.041.01h-0.041l-0.041.01-0.038.01v0.05h0.08l0.041,0.01h0.041l0.04,0.01h0.043l0.041,0.01h0.041l0.041,0.01a0.06,0.06,0,0,1,.041.01h0.041l0.041,0.01a0.066,0.066,0,0,0,.041.01c0.016,0,.027.01,0.043,0.01s0.025,0.01.041,0.01,0.027,0.01.041,0.01,0.027,0.01.041,0.01,0.027,0.01.04,0.01,0.027,0.01.043,0.02l0.041,0.01c0.012,0,.025.01,0.041,0.01s0.025,0.01.041,0.01,0.027,0.01.041,0.02,0.027,0.01.041,0.01,0.027,0.01.041,0.02a0.078,0.078,0,0,1,.041.02c0.014,0,.027.01,0.041,0.01a0.078,0.078,0,0,0,.041.02c0.014,0.01.027,0.01,0.043,0.02a0.372,0.372,0,0,0,.04.02c0.014,0.01.025,0.01,0.041,0.02s0.027,0.01.041,0.02a0.072,0.072,0,0,0,.041.02l0.039,0.03a0.084,0.084,0,0,1,.043.02,0.078,0.078,0,0,0,.041.02l0.041,0.03a0.086,0.086,0,0,0,.041.02c0.016,0.01.029,0.02,0.043,0.03l0.041,0.03,0.041,0.03,0.041,0.03a0.151,0.151,0,0,1,.04.04l0.041,0.03c0.014,0.01.027,0.03,0.041,0.04s0.027,0.03.041,0.04,0.029,0.03.043,0.04,0.027,0.03.041,0.05,0.027,0.03.041,0.04a0.219,0.219,0,0,0,.041.05c0.016,0.02.027,0.04,0.041,0.06a9016297366.476,9016297366.476,0,0,0,.082.12c0.016,0.02.028,0.05,0.041,0.07a0.579,0.579,0,0,0,.043.08c0.013,0.03.025,0.06,0.04,0.09s0.028,0.07.041,0.11a1.245,1.245,0,0,1,.041.14c0.018,0.07.03,0.14,0.041,0.21a2.041,2.041,0,0,1,.018.27,2.081,2.081,0,0,1-.018.28c-0.011.07-.023,0.15-0.041,0.22-0.013.04-.025,0.09-0.041,0.14s-0.025.07-.041,0.11a1.037,1.037,0,0,0-.04.1,0.71,0.71,0,0,0-.043.08c-0.013.02-.025,0.05-0.041,0.07s-0.025.05-.041,0.07a0.711,0.711,0,0,1-.041.06c-0.014.02-.025,0.04-0.041,0.06a0.288,0.288,0,0,0-.041.05c-0.014.02-.027,0.03-0.041,0.05a0.153,0.153,0,0,1-.041.04c-0.014.02-.027,0.03-0.043,0.05a43049482405.409,43049482405.409,0,0,1-.082.08l-0.041.03a0.151,0.151,0,0,1-.04.04l-0.041.03-0.041.03-0.041.03c-0.014.01-.027,0.02-0.043,0.03a0.364,0.364,0,0,1-.041.03,0.072,0.072,0,0,1-.041.02l-0.041.03c-0.014.01-.027,0.01-0.043,0.02a0.067,0.067,0,0,1-.039.02,0.086,0.086,0,0,1-.041.02l-0.041.03a4.607,4.607,0,0,0-.081.04,0.084,0.084,0,0,0-.043.02,0.078,0.078,0,0,0-.041.02c-0.014,0-.027.01-0.041,0.01a0.078,0.078,0,0,1-.041.02c-0.014.01-.027,0.01-0.041,0.02s-0.027.01-.041,0.01-0.027.01-.041,0.02-0.027.01-.041,0.01l-0.041.01c-0.016,0-.027.01-0.041,0.01a0.068,0.068,0,0,1-.043.01c-0.013.01-.025,0.01-0.04,0.02a0.066,0.066,0,0,0-.041.01,0.063,0.063,0,0,0-.041.01c-0.016,0-.027.01-0.041,0.01l-0.043.01c-0.014,0-.025.01-0.041,0.01a0.066,0.066,0,0,0-.041.01h-0.041l-0.041.01a0.066,0.066,0,0,0-.041.01h-0.041c-0.014,0-.027.01-0.041,0.01h-0.043a0.058,0.058,0,0,1-.04.01h-0.123l-0.041.01h-0.1a0.064,0.064,0,0,1-.043.01H946.5v8.82h6.411a0.067,0.067,0,0,0,.043-0.01h0.122a0.061,0.061,0,0,0,.041-0.01H953.2a0.063,0.063,0,0,1,.041-0.01h0.043a0.06,0.06,0,0,1,.041-0.01l0.041-.01h0.041l0.041-.01a0.063,0.063,0,0,0,.041-0.01h0.041l0.041-.01,0.042-.01a0.063,0.063,0,0,1,.041-0.01c0.015,0,.026-0.01.041-0.01l0.041-.01,0.041-.01,0.041-.01c0.015-.01.026-0.01,0.041-0.02a0.063,0.063,0,0,0,.041-0.01,0.071,0.071,0,0,0,.043-0.01l0.041-.01a0.063,0.063,0,0,1,.041-0.01l0.04-.02a0.063,0.063,0,0,1,.041-0.01c0.014-.01.026-0.01,0.043-0.02a0.078,0.078,0,0,0,.041-0.02l0.041-.01c0.012-.01.026-0.01,0.041-0.02s0.026-.01.041-0.01a0.075,0.075,0,0,1,.041-0.02c0.014-.01.026-0.01,0.041-0.02s0.026-.01.041-0.02,0.026-.01.041-0.02l0.041-.02,0.043-.02c0.012-.01.026-0.01,0.041-0.02a0.069,0.069,0,0,1,.04-0.02,4.607,4.607,0,0,0,.081-0.04l0.041-.03a0.075,0.075,0,0,0,.041-0.02c0.015-.01.027-0.01,0.041-0.02a0.088,0.088,0,0,1,.043-0.02l0.041-.03c0.015,0,.027-0.02.041-0.02l0.041-.03a0.075,0.075,0,0,0,.041-0.02l0.041-.03c0.015-.01.027-0.02,0.04-0.03a0.075,0.075,0,0,0,.041-0.02c0.015-.01.027-0.02,0.043-0.03l0.041-.03,0.041-.03,0.041-.03a0.14,0.14,0,0,0,.041-0.04l0.043-.03,0.041-.03a0.189,0.189,0,0,0,.041-0.04l0.041-.03c0.015-.01.027-0.03,0.041-0.04a0.151,0.151,0,0,0,.04-0.04,96861335240.409,96861335240.409,0,0,1,.123-0.12c0.015-.01.027-0.03,0.041-0.04s0.027-.03.041-0.04a0.144,0.144,0,0,1,.043-0.04,0.162,0.162,0,0,1,.041-0.05c0.015-.02.027-0.03,0.041-0.05s0.027-.03.041-0.05,0.027-.03.041-0.05,0.027-.03.041-0.05l0.041-.06a0.218,0.218,0,0,0,.04-0.05c0.014-.02.027-0.04,0.043-0.06s0.025-.04.041-0.06,0.025-.04.041-0.06a0.655,0.655,0,0,0,.041-0.07l0.041-.06c0.014-.02.027-0.05,0.041-0.07s0.025-.05.041-0.07,0.025-.05.041-0.07a0.588,0.588,0,0,1,.041-0.08l0.041-.09a0.588,0.588,0,0,1,.041-0.08,1.023,1.023,0,0,1,.041-0.1c0.014-.03.026-0.06,0.042-0.1s0.025-.07.04-0.11,0.028-.08.04-0.12a0.907,0.907,0,0,0,.041-0.13c0.016-.05.029-0.1,0.041-0.15a1.634,1.634,0,0,0,.041-0.17c0.018-.07.029-0.14,0.043-0.22,0.018-.1.031-0.21,0.041-0.33s0.018-.25.018-0.38v-21.64h-0.018Zm-4.815,14.39a1.2,1.2,0,0,0-.041-0.15,0.9,0.9,0,0,0-.041-0.09,0.372,0.372,0,0,0-.041-0.08,0.624,0.624,0,0,0-.04-0.07l-0.041-.06a0.343,0.343,0,0,1-.041-0.05c-0.014-.01-0.026-0.03-0.041-0.04a0.124,0.124,0,0,0-.043-0.04,0.169,0.169,0,0,1-.041-0.04l-0.041-.03-0.041-.03-0.041-.03a0.082,0.082,0,0,1-.041-0.02,0.082,0.082,0,0,0-.041-0.02c-0.016-.01-0.026-0.01-0.043-0.02s-0.026-.01-0.04-0.02-0.026-.01-0.041-0.02-0.026-.01-0.041-0.01a0.082,0.082,0,0,1-.041-0.02,0.064,0.064,0,0,1-.041-0.01h-0.041a0.059,0.059,0,0,0-.041-0.01,0.064,0.064,0,0,1-.041-0.01h-0.082a0.061,0.061,0,0,1-.041-0.01h-2.525v2.29H951.1a0.061,0.061,0,0,1,.041-0.01h0.082a0.064,0.064,0,0,1,.041-0.01,0.059,0.059,0,0,0,.041-0.01h0.023l0.018-.01a0.064,0.064,0,0,0,.041-0.01,0.061,0.061,0,0,0,.041-0.01c0.015,0,.027-0.01.041-0.01s0.026-.01.041-0.02,0.026-.01.04-0.02,0.027-.01.043-0.02a0.075,0.075,0,0,1,.041-0.02l0.041-.03a0.075,0.075,0,0,0,.041-0.02l0.041-.03,0.041-.03c0.015-.01.027-0.03,0.041-0.04s0.027-.03.043-0.04a0.169,0.169,0,0,1,.041-0.04c0.015-.02.027-0.04,0.041-0.06a0.219,0.219,0,0,0,.041-0.05c0.017-.03.027-0.05,0.04-0.07a0.372,0.372,0,0,0,.041-0.08,0.519,0.519,0,0,0,.041-0.1,0.745,0.745,0,0,0,.041-0.14,1.07,1.07,0,0,0,.029-0.27A1.144,1.144,0,0,0,952.169,6541.4Zm-0.282-3.46a0.823,0.823,0,0,0-.041-0.14c-0.014-.03-0.024-0.06-0.041-0.09a0.372,0.372,0,0,0-.041-0.08c-0.014-.02-0.026-0.04-0.041-0.06s-0.026-.04-0.041-0.06-0.026-.03-0.041-0.04-0.026-.03-0.041-0.05l-0.041-.03a0.124,0.124,0,0,0-.043-0.04,0.463,0.463,0,0,0-.04-0.03,0.075,0.075,0,0,0-.041-0.02l-0.041-.03c-0.014-.01-0.026-0.01-0.041-0.02s-0.026-.01-0.041-0.02-0.026-.01-0.041-0.02-0.028-.01-0.041-0.01-0.026-.01-0.041-0.02-0.028-.01-0.043-0.01-0.026-.01-0.041-0.01-0.026-.01-0.04-0.01h-0.041a0.058,0.058,0,0,0-.04-0.01h-0.041a0.061,0.061,0,0,1-.041-0.01h-2.327v2.11H950.9a0.064,0.064,0,0,0,.041-0.01h0.081a0.039,0.039,0,0,1,.03-0.01h0.011a0.058,0.058,0,0,0,.04-0.01,0.061,0.061,0,0,0,.041-0.01c0.015,0,.029-0.01.043-0.01s0.027-.01.041-0.01,0.027-.01.041-0.02,0.027-.01.041-0.02a2393985175.178,2393985175.178,0,0,1,.082-0.04,0.082,0.082,0,0,1,.041-0.02l0.041-.03a0.463,0.463,0,0,0,.04-0.03c0.017-.01.029-0.02,0.043-0.03a0.169,0.169,0,0,1,.041-0.04c0.015-.01.027-0.03,0.041-0.04s0.027-.03.041-0.05a0.249,0.249,0,0,1,.041-0.05c0.015-.02.027-0.05,0.041-0.07s0.029-.05.041-0.07a0.842,0.842,0,0,0,.041-0.1,0.621,0.621,0,0,0,.041-0.14,1.3,1.3,0,0,0,.025-0.24A1.06,1.06,0,0,0,951.887,6537.94Z" transform="translate(-923 -6527)"/>
</svg>
