<svg xmlns="http://www.w3.org/2000/svg" xmlns:xlink="http://www.w3.org/1999/xlink" width="19.94" height="24.56" viewBox="0 0 19.94 24.56">
  <metadata><?xpacket begin="﻿" id="W5M0MpCehiHzreSzNTczkc9d"?>
<x:xmpmeta xmlns:x="adobe:ns:meta/" x:xmptk="Adobe XMP Core 5.6-c138 79.159824, 2016/09/14-01:09:01        ">
   <rdf:RDF xmlns:rdf="http://www.w3.org/1999/02/22-rdf-syntax-ns#">
      <rdf:Description rdf:about=""/>
   </rdf:RDF>
</x:xmpmeta>
                                                                                                    
                                                                                                    
                                                                                                    
                                                                                                    
                                                                                                    
                                                                                                    
                                                                                                    
                                                                                                    
                                                                                                    
                                                                                                    
                                                                                                    
                                                                                                    
                                                                                                    
                                                                                                    
                                                                                                    
                                                                                                    
                                                                                                    
                                                                                                    
                                                                                                    
                                                                                                    
                           
<?xpacket end="w"?></metadata>
<defs>
    <style>
      .cls-1 {
        fill-rule: evenodd;
        filter: url(#filter);
      }
    </style>
    <filter id="filter" x="1698.03" y="6551.66" width="19.94" height="24.56" filterUnits="userSpaceOnUse">
      <feFlood result="flood" flood-color="#fff"/>
      <feComposite result="composite" operator="in" in2="SourceGraphic"/>
      <feBlend result="blend" in2="SourceGraphic"/>
    </filter>
  </defs>
  <path id="Pinterest" class="cls-1" d="M1708.33,6551.66c-6.73,0-10.31,4.31-10.31,9.02,0,2.18,1.22,4.9,3.17,5.76,0.29,0.14.46,0.08,0.52-.19,0.06-.21.32-1.22,0.44-1.69a0.435,0.435,0,0,0-.1-0.43,5.6,5.6,0,0,1-1.17-3.4c0-3.28,2.61-6.47,7.05-6.47,3.84,0,6.53,2.5,6.53,6.07,0,4.03-2.13,6.82-4.9,6.82a2.2,2.2,0,0,1-2.32-2.7c0.44-1.77,1.3-3.68,1.3-4.96a1.9,1.9,0,0,0-1.98-2.09c-1.56,0-2.83,1.54-2.83,3.62a5.133,5.133,0,0,0,.47,2.21s-1.54,6.24-1.83,7.41a16.676,16.676,0,0,0,.11,5.44,0.168,0.168,0,0,0,.3.08,19.439,19.439,0,0,0,2.54-4.79c0.19-.71.97-3.55,0.97-3.55a4.258,4.258,0,0,0,3.59,1.71c4.7,0,8.1-4.14,8.1-9.27C1717.97,6555.34,1713.76,6551.66,1708.33,6551.66Z" transform="translate(-1698.03 -6551.66)"/>
</svg>
